<svg xmlns:mydata="http://www.w3.org/2000/svg" mydata:contrastcolor="ffffff" mydata:template="Contrast" mydata:presentation="2.5" mydata:layouttype="undefined" mydata:specialfontid="undefined" mydata:id1="121" mydata:id2="120" mydata:companyname="Better Confort" mydata:companytagline="" version="1.1" xmlns="http://www.w3.org/2000/svg" xmlns:xlink="http://www.w3.org/1999/xlink" viewBox="0 0 550 470"><g fill="none" fill-rule="none" stroke="none" stroke-width="1" stroke-linecap="butt" stroke-linejoin="miter" stroke-miterlimit="10" stroke-dasharray="" stroke-dashoffset="0" font-family="none" font-weight="none" font-size="none" text-anchor="none" style="mix-blend-mode: normal"><g data-paper-data="{&quot;isGlobalGroup&quot;:true,&quot;bounds&quot;:{&quot;x&quot;:64.99999999999997,&quot;y&quot;:187.4907537729357,&quot;width&quot;:420,&quot;height&quot;:95.01849245412859}}"><g data-paper-data="{&quot;isSecondaryText&quot;:true}" fill="#fff" fill-rule="nonzero"><path d="M192.69573,262.99628c-1.36242,0 -2.43664,0.48284 -3.22265,1.44851c-0.78601,0.96567 -1.17902,2.43664 -1.17902,4.4129c0,1.94632 0.40049,3.4098 1.20148,4.39044c0.80098,0.98064 1.86771,1.47097 3.20019,1.47097c0.64378,0 1.27633,-0.131 1.89766,-0.39301c0.62132,-0.262 1.17153,-0.70741 1.65063,-1.33622l1.6394,1.28008c-0.64378,0.86836 -1.39611,1.52711 -2.25698,1.97626c-0.86087,0.44915 -1.81531,0.67372 -2.86333,0.67372c-0.97316,0 -1.86771,-0.17217 -2.68367,-0.51652c-0.81596,-0.34435 -1.52337,-0.85338 -2.12223,-1.52711c-0.59887,-0.67372 -1.06673,-1.51214 -1.40359,-2.51524c-0.33686,-1.0031 -0.50529,-2.17089 -0.50529,-3.50337c0,-1.31751 0.16843,-2.48155 0.50529,-3.49214c0.33686,-1.01059 0.80473,-1.86023 1.40359,-2.54892c0.59887,-0.6887 1.30628,-1.20522 2.12223,-1.54957c0.81596,-0.34435 1.71051,-0.51652 2.68367,-0.51652c1.2127,0 2.24575,0.24703 3.09913,0.7411c0.85338,0.49406 1.56454,1.19025 2.13346,2.08855l-1.6394,1.30253c-0.50904,-0.62881 -1.07796,-1.10042 -1.70677,-1.41482c-0.62881,-0.3144 -1.28008,-0.47161 -1.9538,-0.47161z" data-paper-data="{&quot;glyphName&quot;:&quot;C&quot;,&quot;glyphIndex&quot;:0,&quot;firstGlyphOfWord&quot;:true,&quot;word&quot;:1}"></path><path d="M237.90835,260.75053c0.95819,0 1.84151,0.17217 2.64998,0.51652c0.80847,0.34435 1.50465,0.86087 2.08855,1.54957c0.58389,0.6887 1.03679,1.53834 1.35868,2.54892c0.32189,1.01059 0.48284,2.17463 0.48284,3.49214c0,1.33248 -0.16095,2.50027 -0.48284,3.50337c-0.32189,1.0031 -0.77478,1.84151 -1.35868,2.51524c-0.58389,0.67372 -1.28008,1.18276 -2.08855,1.52711c-0.80847,0.34435 -1.6918,0.51652 -2.64998,0.51652c-0.95819,0 -1.83777,-0.17217 -2.63875,-0.51652c-0.80098,-0.34435 -1.49342,-0.85338 -2.07732,-1.52711c-0.58389,-0.67372 -1.03679,-1.51214 -1.35868,-2.51524c-0.32189,-1.0031 -0.48284,-2.17089 -0.48284,-3.50337c0,-1.31751 0.16095,-2.48155 0.48284,-3.49214c0.32189,-1.01059 0.77478,-1.86023 1.35868,-2.54892c0.58389,-0.6887 1.27633,-1.20522 2.07732,-1.54957c0.80098,-0.34435 1.68057,-0.51652 2.63875,-0.51652zM237.90835,262.99628c-1.34745,0 -2.40669,0.48284 -3.17773,1.44851c-0.77104,0.96567 -1.15656,2.43664 -1.15656,4.4129c0,1.97626 0.38552,3.44722 1.15656,4.4129c0.77104,0.96567 1.83029,1.44851 3.17773,1.44851c1.33248,0 2.39172,-0.49032 3.17773,-1.47097c0.78601,-0.98064 1.17902,-2.44412 1.17902,-4.39044c0,-1.97626 -0.38552,-3.44722 -1.15656,-4.4129c-0.77104,-0.96567 -1.83777,-1.44851 -3.20019,-1.44851z" data-paper-data="{&quot;glyphName&quot;:&quot;O&quot;,&quot;glyphIndex&quot;:1,&quot;word&quot;:1}"></path><path d="M288.12716,272.51826v-11.45332h2.22329v15.54058h-2.33558l-6.87199,-11.43086v11.43086h-2.22329v-15.54058h2.33558z" data-paper-data="{&quot;glyphName&quot;:&quot;N&quot;,&quot;glyphIndex&quot;:2,&quot;word&quot;:1}"></path><path d="M324.9688,267.80218h4.04235v2.22329h-4.04235v6.58004h-2.22329v-15.54058h8.5563v2.24575h-6.33301z" data-paper-data="{&quot;glyphName&quot;:&quot;F&quot;,&quot;glyphIndex&quot;:3,&quot;word&quot;:1}"></path><path d="M367.60702,260.75053c0.95819,0 1.84151,0.17217 2.64998,0.51652c0.80847,0.34435 1.50465,0.86087 2.08855,1.54957c0.58389,0.6887 1.03679,1.53834 1.35868,2.54892c0.32189,1.01059 0.48284,2.17463 0.48284,3.49214c0,1.33248 -0.16095,2.50027 -0.48284,3.50337c-0.32189,1.0031 -0.77478,1.84151 -1.35868,2.51524c-0.58389,0.67372 -1.28008,1.18276 -2.08855,1.52711c-0.80847,0.34435 -1.6918,0.51652 -2.64998,0.51652c-0.95819,0 -1.83777,-0.17217 -2.63875,-0.51652c-0.80098,-0.34435 -1.49342,-0.85338 -2.07732,-1.52711c-0.58389,-0.67372 -1.03679,-1.51214 -1.35868,-2.51524c-0.32189,-1.0031 -0.48284,-2.17089 -0.48284,-3.50337c0,-1.31751 0.16095,-2.48155 0.48284,-3.49214c0.32189,-1.01059 0.77478,-1.86023 1.35868,-2.54892c0.58389,-0.6887 1.27633,-1.20522 2.07732,-1.54957c0.80098,-0.34435 1.68057,-0.51652 2.63875,-0.51652zM367.60702,262.99628c-1.34745,0 -2.40669,0.48284 -3.17773,1.44851c-0.77104,0.96567 -1.15656,2.43664 -1.15656,4.4129c0,1.97626 0.38552,3.44722 1.15656,4.4129c0.77104,0.96567 1.83029,1.44851 3.17773,1.44851c1.33248,0 2.39172,-0.49032 3.17773,-1.47097c0.78601,-0.98064 1.17902,-2.44412 1.17902,-4.39044c0,-1.97626 -0.38552,-3.44722 -1.15656,-4.4129c-0.77104,-0.96567 -1.83777,-1.44851 -3.20019,-1.44851z" data-paper-data="{&quot;glyphName&quot;:&quot;O&quot;,&quot;glyphIndex&quot;:4,&quot;word&quot;:1}"></path><path d="M413.98451,270.47462h-3.23388v6.13089h-2.22329v-15.54058h5.97369c0.76355,0 1.45599,0.09732 2.07732,0.29195c0.62132,0.19463 1.15282,0.48658 1.59448,0.87584c0.44166,0.38926 0.78227,0.8721 1.02182,1.44851c0.23955,0.57641 0.35932,1.2389 0.35932,1.98749c0,1.30253 -0.31815,2.32061 -0.95444,3.05422c-0.6363,0.73361 -1.42605,1.2127 -2.36926,1.43728l3.5932,6.4453h-2.64998zM410.75063,268.36362h3.81777c0.85338,0 1.54208,-0.20586 2.06609,-0.61758c0.52401,-0.41172 0.78601,-1.06673 0.78601,-1.96503c0,-0.44915 -0.07112,-0.83093 -0.21335,-1.14533c-0.14223,-0.3144 -0.34061,-0.57267 -0.59512,-0.77478c-0.25452,-0.20212 -0.55395,-0.35183 -0.8983,-0.44915c-0.34435,-0.09732 -0.72613,-0.14597 -1.14533,-0.14597h-3.81777z" data-paper-data="{&quot;glyphName&quot;:&quot;R&quot;,&quot;glyphIndex&quot;:5,&quot;word&quot;:1}"></path><path d="M455.09745,276.60552h-2.22329v-13.29483h-4.46904v-2.24575h11.094v2.24575h-4.40167z" data-paper-data="{&quot;glyphName&quot;:&quot;T&quot;,&quot;glyphIndex&quot;:6,&quot;lastGlyphOfWord&quot;:true,&quot;word&quot;:1}"></path></g><g data-paper-data="{&quot;isPrimaryText&quot;:true}" fill="#75787b" fill-rule="nonzero"><path d="M208.6697,193.08008c2.31206,0 4.41393,0.36783 6.30561,1.10348c1.89168,0.73565 3.52063,1.74718 4.88685,3.03458c1.36622,1.2874 2.41715,2.83753 3.15281,4.65039c0.73565,1.81286 1.10348,3.82278 1.10348,6.02974c0,2.67989 -0.45978,4.84744 -1.37935,6.50266c-0.91957,1.65522 -2.03619,3.0083 -3.34986,4.05924c1.05094,0.36783 2.10187,0.94584 3.15281,1.73404c1.05094,0.7882 1.98364,1.76032 2.79812,2.91635c0.81447,1.15603 1.47131,2.49597 1.9705,4.01983c0.49919,1.52386 0.74879,3.23163 0.74879,5.12331c0,2.52224 -0.43351,4.72921 -1.30053,6.62089c-0.86702,1.89168 -2.10187,3.49436 -3.70455,4.80803c-1.60268,1.31367 -3.53377,2.29892 -5.79328,2.95576c-2.25951,0.65683 -4.80803,0.98525 -7.64555,0.98525h-23.56722v-54.54354zM208.90616,215.0709c0.68311,0 1.32681,-0.17078 1.93109,-0.51233c0.60429,-0.34155 1.14289,-0.7882 1.61581,-1.33994c0.47292,-0.55174 0.85388,-1.1823 1.14289,-1.89168c0.28901,-0.70938 0.43351,-1.4319 0.43351,-2.16755c0,-1.6815 -0.47292,-3.03458 -1.41876,-4.05924c-0.94584,-1.02466 -2.18069,-1.53699 -3.70455,-1.53699h-12.29594v11.50774zM196.61022,237.21936h13.87235c2.20696,0 3.99355,-0.52547 5.35977,-1.5764c1.36622,-1.05094 2.04932,-2.57479 2.04932,-4.57157c0,-0.99839 -0.23646,-1.90482 -0.70938,-2.7193c-0.47292,-0.81447 -1.10348,-1.49758 -1.89168,-2.04932c-0.7882,-0.55174 -1.66836,-0.98525 -2.64047,-1.30053c-0.97212,-0.31528 -1.95737,-0.47292 -2.95576,-0.47292h-13.08414z" data-paper-data="{&quot;glyphName&quot;:&quot;B&quot;,&quot;glyphIndex&quot;:0,&quot;firstGlyphOfWord&quot;:true,&quot;word&quot;:1}"></path><path d="M244.1519,193.08008h31.60688v10.71954h-20.88734v10.64072h12.9265v10.71954h-12.9265v11.90184h21.43908v10.5619h-32.15862z" data-paper-data="{&quot;glyphName&quot;:&quot;E&quot;,&quot;glyphIndex&quot;:1,&quot;word&quot;:1}"></path><path d="M313.92087,247.62362h-10.64072v-43.824h-14.73937v-10.71954h39.96181v10.71954h-14.58173z" data-paper-data="{&quot;glyphName&quot;:&quot;T&quot;,&quot;glyphIndex&quot;:2,&quot;word&quot;:1}"></path><path d="M364.53654,247.62362h-10.64072v-43.824h-14.73937v-10.71954h39.96181v10.71954h-14.58173z" data-paper-data="{&quot;glyphName&quot;:&quot;T&quot;,&quot;glyphIndex&quot;:3,&quot;word&quot;:1}"></path><path d="M393.87077,193.08008h31.60688v10.71954h-20.88734v10.64072h12.9265v10.71954h-12.9265v11.90184h21.43908v10.5619h-32.15862z" data-paper-data="{&quot;glyphName&quot;:&quot;E&quot;,&quot;glyphIndex&quot;:4,&quot;word&quot;:1}"></path><path d="M461.98452,227.44566h-8.90668v20.17796h-10.71954v-54.54354h22.3061c2.73243,0 5.2284,0.35469 7.48791,1.06407c2.25951,0.70938 4.1906,1.77345 5.79328,3.19222c1.60268,1.41876 2.83753,3.15281 3.70455,5.20213c0.86702,2.04932 1.30053,4.41393 1.30053,7.09381c0,2.31206 -0.27587,4.36138 -0.82761,6.14797c-0.55174,1.78659 -1.30053,3.33672 -2.24637,4.65039c-0.94584,1.31367 -2.04932,2.39088 -3.31045,3.23163c-1.26112,0.84075 -2.57479,1.49758 -3.94101,1.9705l12.37476,21.99082h-12.61122zM453.07784,217.35668h11.90184c2.3646,0 4.26942,-0.5386 5.71446,-1.61581c1.44504,-1.07721 2.16755,-2.87694 2.16755,-5.39918c0,-2.41715 -0.72252,-4.15119 -2.16755,-5.20213c-1.44504,-1.05094 -3.34986,-1.5764 -5.71446,-1.5764h-11.90184z" data-paper-data="{&quot;glyphName&quot;:&quot;R&quot;,&quot;glyphIndex&quot;:5,&quot;lastGlyphOfWord&quot;:true,&quot;word&quot;:1}"></path></g><g data-paper-data="{&quot;isIcon&quot;:&quot;true&quot;,&quot;iconType&quot;:&quot;icon&quot;,&quot;rawIconId&quot;:&quot;1574636&quot;,&quot;selectedEffects&quot;:{&quot;container&quot;:&quot;&quot;,&quot;transformation&quot;:&quot;&quot;,&quot;pattern&quot;:&quot;&quot;},&quot;combineTerms&quot;:&quot;undefined&quot;,&quot;isDetailed&quot;:false,&quot;fillRule&quot;:&quot;evenodd&quot;,&quot;bounds&quot;:{&quot;x&quot;:64.99999999999997,&quot;y&quot;:187.4907537729357,&quot;width&quot;:95.01849245412862,&quot;height&quot;:95.01849245412859},&quot;iconStyle&quot;:&quot;standalone&quot;,&quot;suitableAsStandaloneIcon&quot;:true}" fill="#75787b" fill-rule="evenodd"><path d="M86.77468,267.66261c0,8.18584 6.65723,14.84664 14.84308,14.84664c8.18941,0 14.8502,-6.6608 14.8502,-14.84664v-6.92804h28.7039c8.18584,0 14.84664,-6.66198 14.84664,-14.84664c0,-8.18941 -6.6608,-14.84664 -14.84664,-14.84664h-28.7039v-13.85726h6.92922c8.18466,0 14.84664,-6.65723 14.84664,-14.84664c0,-8.18941 -6.66198,-14.84664 -14.84664,-14.84664c-8.18941,0 -14.84664,6.66555 -14.84664,14.84664v6.92804h-28.7039c-8.18941,0 -14.84664,6.65723 -14.84664,14.84664c0,8.18941 6.65723,14.84664 14.84664,14.84664h28.7039v13.85726h-6.92922c-8.18941,0.00356 -14.84664,6.66555 -14.84664,14.84664zM123.39718,209.26543h-6.92922v-6.92804c0,-3.81974 3.10829,-6.92804 6.92922,-6.92804c3.81974,0 6.92804,3.10829 6.92804,6.92804c0,3.81974 -3.10829,6.92804 -6.92804,6.92804zM72.9186,224.11207c0,-3.81974 3.10829,-6.92804 6.92804,-6.92804h28.7039v13.85726h-28.7039c-3.81974,0 -6.92804,-3.10829 -6.92804,-6.92922zM145.17185,252.81597h-28.7039v-13.85726h28.7039c3.81974,0 6.92804,3.10829 6.92804,6.92922c0,3.81974 -3.10829,6.92804 -6.92804,6.92804zM94.69328,267.66261c0,-3.81618 3.10829,-6.92447 6.92804,-6.92804h6.92922v6.92804c0,3.81974 -3.10829,6.92804 -6.93279,6.92804c-3.81974,0 -6.92447,-3.10829 -6.92447,-6.92804z" data-paper-data="{&quot;isPathIcon&quot;:true}"></path></g></g></g></svg>